<?xml version="1.0"?><svg version="1.2" baseProfile="tiny-ps" viewBox="0 0 300 300" xmlns="http://www.w3.org/2000/svg" xmlns:xlink="http://www.w3.org/1999/xlink"><title>KellHect</title><g><g fill="#ff7002" transform="matrix(.1 0 0 -.1 0 300)"><path d="m1317 2714-178-223 6-443 7-443-9 10c-6 6-97 129-204 274l-194 265-3-550c-2-302 0-595 3-651l7-101 371-382 371-383 268 274c147 151 316 325 375 388l108 114 3 601c2 330 2 621 0 645l-3 45-200-267c-109-146-200-265-201-264-2 1 3 200 10 442l13 439-170 201c-93 110-177 207-186 217l-16 16-178-224zm1159 14c-12-232-45-1476-49-1848l-2-265 10-4 10-5 13 25c7 13 38 87 70 164l57 140 127 171c172 232 258 355 258 367 0 6-96-88-214-209-118-120-216-217-219-214s-10 313-16 690-14 778-17 893l-6 207h-16l-6-112zM466 2568c-10-415-26-1251-26-1390v-128h-11c-11 0-168 155-323 318-54 57-100 101-103 98-6-6 63-106 251-361l139-189 58-143c32-78 63-152 69-164l12-21 10 10 11 11-12 508c-17 769-40 1580-47 1651l-6 62h-16l-6-262z"/></g><g fill="#3c3b3b" transform="matrix(.1 0 0 -.1 0 300)"><path d="m1317 2714-178-223 6-443 7-443-9 10c-6 6-97 129-204 274l-194 265-3-550c-2-302 0-595 3-651l7-101 371-382 371-383 268 274c147 151 316 325 375 388l108 114 3 601c2 330 2 621 0 645l-3 45-200-267c-109-146-200-265-201-264-2 1 3 200 10 442l13 439-170 201c-93 110-177 207-186 217l-16 16-178-224z"/></g><g fill="#2b2b29" transform="matrix(.1 0 0 -.1 0 300)"><path d="m1488 1748-3-1197-169 529-170 528-193 264c-107 145-199 268-204 273l-10 10 3-646 3-646 127-134c70-74 239-248 375-388l248-253 371 381 372 382 7 142c3 78 5 371 3 651l-3 510-200-267c-109-146-200-265-201-264-2 1 3 200 10 442l13 439-170 201c-93 110-178 209-188 220l-19 19-2-1196z"/></g><g fill="#0c0a0b" transform="matrix(.1 0 0 -.1 0 300)"><path d="M1498 1513c-2-780-4-1419-3-1421 1-1 169 169 372 379l371 380 7 142c3 78 5 371 3 651l-3 510-200-267c-109-146-200-265-201-264-2 1 3 200 10 442l13 439-170 201c-93 110-175 206-182 213l-13 14-4-1419z"/></g></g></svg>